<?xml version="1.0" standalone="no"?>
<!DOCTYPE svg PUBLIC "-//W3C//DTD SVG 20010904//EN"
 "http://www.w3.org/TR/2001/REC-SVG-20010904/DTD/svg10.dtd">
<svg version="1.0" xmlns="http://www.w3.org/2000/svg"
 width="235.000000pt" height="33.000000pt" viewBox="0 0 235.000000 33.000000"
 preserveAspectRatio="xMidYMid meet">

<g transform="translate(0.000000,33.000000) scale(0.100000,-0.100000)"
fill="#000000" stroke="none">
<path d="M461 278 c5 -18 9 -47 9 -65 0 -30 -1 -31 -28 -21 -60 23 -132 -23
-132 -85 0 -45 38 -101 71 -105 17 -2 37 6 58 23 29 25 31 26 31 6 0 -24 12
-33 34 -25 11 4 13 11 5 31 -14 39 -11 199 5 238 l15 35 -39 0 -39 0 10 -32z
m-18 -120 c9 -7 19 -26 23 -43 4 -25 0 -35 -26 -60 -40 -38 -64 -26 -68 33 -5
70 28 102 71 70z"/>
<path d="M702 248 c9 -65 5 -79 -14 -60 -36 36 -131 -11 -136 -67 -5 -45 4
-77 28 -101 27 -27 62 -25 99 6 29 24 31 25 31 5 0 -24 13 -33 34 -25 12 5 13
11 6 24 -16 31 -12 216 5 250 l16 30 -39 0 -39 0 9 -62z m-21 -88 c30 -17 26
-83 -7 -109 -15 -12 -33 -21 -41 -21 -19 0 -34 44 -26 82 10 56 32 70 74 48z"/>
<path d="M1270 294 c-13 -4 -14 -23 -8 -132 4 -70 5 -135 2 -144 -4 -14 1 -18
22 -18 24 0 26 2 20 31 -3 17 -6 85 -6 150 0 66 -3 118 -7 118 -5 -1 -15 -3
-23 -5z"/>
<path d="M167 273 c-44 -4 -47 -6 -41 -27 6 -26 -62 -172 -96 -206 -20 -20
-20 -20 2 -20 13 0 39 3 59 6 31 5 35 9 32 29 -4 18 1 23 27 29 18 3 44 6 58
6 23 0 24 -2 19 -41 -4 -33 -3 -39 10 -35 8 3 28 6 44 6 28 0 28 1 11 18 -22
22 -57 181 -48 217 5 20 3 25 -11 23 -10 -1 -39 -3 -66 -5z m52 -124 c1 -23
-4 -27 -31 -32 -18 -2 -35 -3 -37 -1 -3 3 8 30 24 62 l29 57 7 -30 c3 -16 7
-42 8 -56z"/>
<path d="M958 218 c-9 -7 -19 -23 -23 -35 -6 -20 -3 -23 23 -23 25 0 29 3 25
20 -3 13 1 22 12 26 21 8 31 -3 39 -42 l7 -32 -46 5 c-35 4 -50 1 -65 -12 -28
-26 -26 -71 5 -91 29 -19 85 -13 105 11 11 13 15 13 33 0 15 -11 24 -12 34 -3
11 9 10 13 -6 24 -13 9 -21 31 -26 71 -4 32 -14 66 -22 76 -19 20 -72 23 -95
5z m67 -108 c10 -16 -24 -62 -42 -58 -26 5 -39 34 -24 52 15 18 56 21 66 6z"/>
<path d="M1564 206 c-12 -30 2 -52 50 -76 54 -28 64 -43 46 -65 -17 -20 -24
-19 -59 11 -20 16 -31 21 -31 12 0 -7 -3 -24 -6 -38 -5 -19 -4 -22 5 -14 9 8
23 8 51 0 53 -14 94 1 98 35 4 30 -15 48 -72 69 -29 11 -41 21 -41 35 0 29 48
32 75 5 21 -21 21 -22 34 23 6 20 -142 23 -150 3z"/>
<path d="M1757 214 c-4 -4 -7 -19 -7 -34 0 -22 8 -31 50 -50 38 -18 50 -29 50
-46 0 -13 -4 -26 -10 -29 -13 -8 -70 22 -70 37 0 19 -10 3 -20 -31 -8 -27 -7
-30 8 -22 9 5 26 5 37 0 37 -14 81 -10 100 11 28 31 8 64 -52 86 -59 21 -65
26 -57 47 9 24 57 21 80 -4 17 -19 19 -19 25 -2 4 10 8 23 8 28 1 12 -131 20
-142 9z"/>
<path d="M1406 200 c-67 -21 -87 -80 -41 -125 31 -32 101 -35 136 -5 l24 19
-23 1 c-12 0 -31 -5 -41 -12 -24 -15 -71 3 -71 27 0 12 15 15 75 15 41 0 75 2
75 5 0 21 -29 57 -55 70 -37 17 -38 17 -79 5z m68 -26 c26 -25 19 -34 -29 -34
-48 0 -62 19 -27 39 24 15 38 13 56 -5z"/>
<path d="M2158 193 c-15 -4 -16 -8 -7 -25 6 -12 9 -43 7 -69 -5 -46 -4 -49 18
-49 20 0 24 5 24 30 0 48 26 90 56 90 33 0 50 -41 36 -87 -10 -32 -9 -33 18
-33 23 0 28 4 27 23 0 12 3 36 7 54 14 60 -56 93 -124 58 -27 -14 -30 -14 -30
0 0 15 -2 16 -32 8z"/>
<path d="M1963 165 c-29 -20 -38 -66 -19 -102 20 -40 56 -57 103 -50 110 18
91 167 -22 167 -22 0 -50 -7 -62 -15z m100 -41 c6 -35 -10 -81 -31 -89 -20 -7
-52 27 -52 57 0 22 18 60 33 70 18 11 44 -10 50 -38z"/>
</g>
</svg>
