<?xml version="1.0" standalone="no"?>
<!DOCTYPE svg PUBLIC "-//W3C//DTD SVG 20010904//EN"
 "http://www.w3.org/TR/2001/REC-SVG-20010904/DTD/svg10.dtd">
<svg version="1.0" xmlns="http://www.w3.org/2000/svg"
 width="416.000000pt" height="33.000000pt" viewBox="0 0 416.000000 33.000000"
 preserveAspectRatio="xMidYMid meet">

<g transform="translate(0.000000,33.000000) scale(0.100000,-0.100000)"
fill="#000000" stroke="none">
<path d="M2216 273 c3 -21 7 -50 9 -65 4 -27 -8 -38 -20 -18 -11 17 -61 11
-96 -13 -25 -17 -35 -31 -37 -56 -5 -45 4 -77 28 -101 25 -25 58 -25 90 0 32
25 40 25 40 -1 0 -14 5 -19 17 -17 14 3 16 18 14 131 -2 104 1 133 14 153 l15
24 -39 0 -40 0 5 -37z m-21 -115 c36 -16 36 -78 -1 -107 -34 -27 -50 -26 -65
0 -19 36 3 119 32 119 4 0 20 -5 34 -12z"/>
<path d="M2678 244 c5 -66 5 -66 -18 -54 -34 18 -85 4 -115 -32 -22 -26 -25
-38 -20 -67 14 -83 69 -112 123 -66 l31 26 7 -26 c8 -31 41 -31 36 0 -2 11 -4
68 -5 126 -1 86 2 111 16 132 l17 27 -39 0 -39 0 6 -66z m-23 -86 c34 -16 35
-69 0 -103 -46 -47 -81 -23 -72 51 6 61 24 74 72 52z"/>
<path d="M68 291 c-39 -5 -46 -9 -38 -21 17 -26 12 -212 -6 -238 -15 -22 -15
-22 37 -22 45 0 50 2 43 17 -4 10 -8 34 -8 53 -1 31 2 35 27 38 16 2 35 -2 43
-9 17 -14 19 -60 2 -77 -9 -9 -1 -12 39 -12 l51 0 -13 36 c-6 19 -21 44 -32
55 -20 20 -20 20 14 54 41 41 42 68 4 106 -31 31 -54 34 -163 20z m90 -33 c16
-16 16 -80 0 -96 -7 -7 -25 -12 -40 -12 -26 0 -28 2 -28 44 0 62 36 96 68 64z"/>
<path d="M2888 179 c2 -61 -1 -124 -7 -140 l-10 -29 55 0 c55 0 66 8 39 30
-11 9 -15 32 -15 84 l1 71 16 -30 c9 -16 22 -46 29 -65 7 -19 16 -34 20 -33 4
1 18 29 30 63 12 34 25 64 28 67 11 11 6 -137 -4 -158 -10 -18 -7 -19 56 -19
l67 0 -21 23 c-19 20 -22 35 -22 111 0 48 5 96 10 107 12 22 9 23 -62 13 -44
-6 -45 -7 -57 -55 -7 -27 -16 -51 -21 -54 -4 -3 -20 24 -35 60 -27 63 -29 65
-64 65 l-36 0 3 -111z"/>
<path d="M3646 235 c5 -11 -1 -15 -20 -15 -14 0 -26 -4 -26 -10 0 -5 13 -10
29 -10 l28 0 -5 -70 c-6 -90 13 -125 61 -116 18 3 40 16 50 28 18 21 18 22 -5
34 -20 11 -24 10 -28 -8 -3 -12 -11 -23 -17 -25 -18 -6 -24 34 -15 97 7 53 8
55 35 52 19 -3 27 1 27 12 0 10 -9 16 -25 16 -16 0 -25 6 -25 15 0 10 -11 15
-35 15 -26 0 -33 -3 -29 -15z"/>
<path d="M524 196 c-37 -37 -43 -70 -20 -115 14 -26 53 -51 81 -51 25 0 64 23
80 47 15 22 14 23 -9 23 -15 0 -25 -7 -29 -20 -7 -27 -62 -28 -77 -1 -22 42
-8 112 25 125 23 9 55 -11 55 -34 0 -16 7 -20 36 -20 l35 0 -21 28 c-49 62
-105 69 -156 18z"/>
<path d="M329 194 c-49 -20 -66 -53 -49 -94 7 -17 21 -35 31 -40 30 -16 92
-11 124 10 27 18 28 20 8 20 -12 0 -34 -5 -48 -12 -30 -13 -75 2 -75 27 0 12
15 15 75 15 46 0 75 4 75 11 0 24 -24 52 -55 65 -41 17 -41 17 -86 -2z m79
-16 c25 -25 13 -38 -33 -38 -48 0 -55 9 -29 34 18 19 45 21 62 4z"/>
<path d="M1673 199 c-98 -28 -74 -149 30 -149 30 0 53 7 68 20 20 16 21 19 7
20 -9 0 -29 -5 -43 -12 -30 -13 -75 2 -75 27 0 12 15 15 75 15 41 0 75 2 75 5
0 23 -35 65 -61 74 -36 12 -33 12 -76 0z m68 -19 c36 -20 23 -40 -26 -40 -48
0 -55 9 -29 34 18 19 28 20 55 6z"/>
<path d="M2366 200 c-65 -20 -85 -73 -45 -124 17 -21 28 -26 67 -26 31 0 55 7
72 20 l25 20 -23 0 c-12 0 -31 -6 -42 -12 -17 -11 -25 -10 -47 2 -42 24 -28
35 52 38 41 2 75 5 75 7 0 2 -5 15 -11 28 -18 40 -74 61 -123 47z m68 -26 c26
-25 19 -34 -29 -34 -48 0 -62 19 -27 39 24 15 38 13 56 -5z"/>
<path d="M3256 199 c-67 -19 -89 -84 -43 -127 31 -29 102 -30 137 -2 l25 20
-23 0 c-12 0 -31 -6 -42 -12 -17 -11 -25 -10 -47 2 -42 24 -28 35 51 40 68 5
73 6 66 25 -17 46 -72 70 -124 54z m68 -25 c26 -25 19 -34 -29 -34 -48 0 -62
19 -27 39 24 15 38 13 56 -5z"/>
<path d="M931 182 c8 -13 9 -38 2 -85 -9 -66 -9 -67 13 -67 21 0 23 5 26 57 3
53 5 58 31 67 37 13 49 -4 45 -67 -3 -43 -1 -47 20 -47 19 0 22 5 22 44 0 36
5 48 26 65 15 12 33 21 40 21 19 0 28 -43 21 -95 l-6 -43 34 -4 c34 -4 46 4
24 18 -7 4 -9 25 -4 59 5 47 4 56 -16 74 -28 26 -45 26 -86 2 -27 -17 -33 -18
-43 -5 -16 19 -60 18 -88 -2 -21 -14 -22 -14 -22 5 0 16 -6 21 -25 21 -22 0
-24 -2 -14 -18z"/>
<path d="M1275 115 c0 -78 2 -85 20 -85 18 0 20 6 17 49 -3 44 -1 51 22 66 41
27 56 14 56 -50 0 -52 1 -55 25 -55 23 0 25 4 25 43 0 33 6 49 24 67 42 38 58
21 54 -55 -3 -61 -2 -65 19 -65 12 0 30 -3 40 -7 17 -6 17 -6 0 14 -15 17 -16
27 -8 64 8 35 7 49 -5 66 -19 31 -55 38 -92 19 -24 -12 -35 -13 -61 -3 -23 8
-38 9 -61 0 -25 -9 -30 -9 -30 3 0 8 -10 14 -22 14 -22 0 -23 -4 -23 -85z"/>
<path d="M1840 191 c-17 -5 -21 -9 -12 -15 7 -4 12 -30 12 -67 0 -56 1 -59 25
-59 22 0 25 4 25 38 0 44 23 82 49 82 31 0 44 -26 39 -75 -5 -43 -4 -45 21
-45 25 0 26 3 28 60 3 51 0 61 -19 74 -29 20 -77 20 -106 0 -20 -14 -22 -14
-22 0 0 17 -2 18 -40 7z"/>
<path d="M3416 191 c-14 -5 -16 -10 -8 -15 7 -4 12 -32 12 -67 0 -57 1 -59 26
-59 20 0 25 4 20 16 -3 9 -1 34 4 55 8 29 17 40 37 45 37 10 56 -18 49 -73 -5
-40 -4 -43 18 -43 21 0 24 6 30 58 6 51 5 59 -15 75 -26 21 -77 22 -107 1 -20
-14 -22 -14 -22 0 0 17 -13 19 -44 7z"/>
<path d="M3997 173 c5 -16 8 -61 8 -101 0 -68 1 -73 20 -68 11 3 26 6 34 6 10
0 11 3 2 14 -18 22 -10 117 11 130 25 15 44 -5 30 -31 -10 -17 -7 -18 24 -15
28 4 34 8 34 29 0 60 -37 79 -83 43 -14 -11 -28 -20 -32 -20 -4 0 -5 9 -2 20
4 17 0 20 -24 20 -27 0 -29 -2 -22 -27z"/>
<path d="M730 160 c-31 -31 -27 -90 9 -125 26 -24 36 -27 71 -22 58 8 80 30
80 83 0 34 -5 47 -26 63 -36 28 -106 29 -134 1z m102 -14 c11 -16 10 -64 -2
-85 -25 -48 -70 -30 -70 28 0 64 44 98 72 57z"/>
<path d="M3802 157 c-32 -34 -29 -82 7 -118 59 -58 155 -23 155 56 0 29 -7 43
-28 61 -37 33 -104 33 -134 1z m92 -3 c20 -20 20 -73 0 -102 -18 -26 -27 -27
-48 -6 -20 20 -20 73 0 102 18 26 27 27 48 6z"/>
</g>
</svg>
