<?xml version="1.0" encoding="UTF-8"?>
<!-- Generator: visioncortex VTracer 0.6.3 -->
<svg version="1.1" xmlns="http://www.w3.org/2000/svg" width="1280" height="208">
<path d="M0 0 C5.36 3.15 8.83 6.6 12 12 C12.5 12.62 12.99 13.24 13.5 13.88 C19.4 22.22 19.21 34.58 17.63 44.28 C16.74 48.83 15.68 53.33 14.53 57.82 C13.78 60.91 13.17 64.02 12.56 67.14 C12 69 12 69 10 71 C9.8 72.91 9.6 74.83 9.4 76.74 C8.84 79.92 7.56 82.54 6.18 85.44 C4.79 88.46 3.61 91.52 2.44 94.62 C0.72 99.13 -1.05 103.59 -3 108 C-3.66 108 -4.32 108 -5 108 C-5.33 109.98 -5.66 111.96 -6 114 C-6.66 114 -7.32 114 -8 114 C-8.08 114.7 -8.16 115.4 -8.25 116.12 C-9.17 119.66 -10.94 122 -13 125 C-13.7 126.65 -14.37 128.32 -15 130 C-15.54 131.01 -16.07 132.02 -16.62 133.06 C-18.28 136.06 -18.28 136.06 -18 140 C-13.59 135.93 -10.22 131.97 -7.2 126.79 C-5.54 124.31 -3.4 122.74 -1 121 C-0.67 120.34 -0.34 119.68 0 119 C0.66 119 1.32 119 2 119 C2.24 118.28 2.48 117.57 2.72 116.83 C4.2 113.56 6.03 111.35 8.44 108.69 C9.22 107.8 10 106.92 10.81 106.01 C13 104 13 104 16 104 C16.29 103.24 16.58 102.47 16.88 101.69 C18 99 18 99 20 96 C20.66 96 21.32 96 22 96 C22.43 95.1 22.43 95.1 22.88 94.19 C24 92 24 92 26 89 C26.66 89 27.32 89 28 89 C28.33 88.01 28.66 87.02 29 86 C29.66 86 30.32 86 31 86 C31 85.34 31 84.68 31 84 C35.07 80.69 39.67 77.89 45 78 C51.66 79.93 55.64 84.07 59 90 C60.9 94.25 62.02 98.37 62.44 103 C62.73 106.15 63.57 108.37 65 111.19 C67.38 116.1 67.56 120.78 67.73 126.18 C67.8 129.21 67.8 129.21 70 132 C70.49 133.87 70.49 133.87 70.88 136 C72.02 141.55 74.01 146.71 76 152 C76.68 154 77.35 156 78 158 C78.33 158.99 78.66 159.98 79 161 C79.99 161.33 80.98 161.66 82 162 C82 162.66 82 163.32 82 164 C82.78 164.31 83.57 164.62 84.38 164.94 C87 166 87 166 89 167 C91.71 167.23 94.41 167.42 97.12 167.56 C98.26 167.63 98.26 167.63 99.41 167.69 C101.27 167.8 103.14 167.9 105 168 C105.64 169.83 105.64 169.83 106 172 C103.46 175.03 101.77 176.74 98 178 C89.44 178.73 82.68 177.88 75 174 C75 173.34 75 172.68 75 172 C74.16 171.66 74.16 171.66 73.31 171.31 C65.82 167.06 61.05 158.82 58 151 C57.3 149.72 56.59 148.45 55.88 147.19 C53.69 142.94 53.66 139.72 54 135 C53.01 134.67 52.02 134.34 51 134 C48.32 129.61 47.19 125.1 46.12 120.12 C44.69 113.86 42.8 109.27 39 104 C39 103.34 39 102.68 39 102 C35.7 101.34 32.4 100.68 29 100 C29 100.66 29 101.32 29 102 C27.34 103.34 25.67 104.67 24 106 C22.92 107.36 22.92 107.36 21.81 108.75 C21.21 109.49 20.62 110.23 20 111 C19.34 111 18.68 111 18 111 C17.67 111.99 17.34 112.98 17 114 C16.34 114 15.68 114 15 114 C15 114.99 15 115.98 15 117 C13.54 118.61 13.54 118.61 11.62 120.19 C11 120.72 10.37 121.25 9.73 121.79 C8 123 8 123 6 123 C5.94 123.7 5.88 124.4 5.81 125.12 C4.69 129.09 2.84 131.02 0 134 C-0.66 134 -1.32 134 -2 134 C-2.33 134.99 -2.66 135.98 -3 137 C-3.66 137 -4.32 137 -5 137 C-5.22 137.54 -5.43 138.08 -5.66 138.64 C-7.46 141.82 -9.92 144.21 -12.5 146.75 C-13 147.26 -13.5 147.76 -14.01 148.29 C-17.75 152 -17.75 152 -20 152 C-20 152.66 -20 153.32 -20 154 C-21.73 154.98 -23.45 155.95 -25.18 156.93 C-26.82 157.89 -28.41 158.94 -30 160 C-33 160.3 -33 160.3 -36.44 160.31 C-37.57 160.33 -38.7 160.35 -39.87 160.36 C-43.31 159.96 -44.68 159.54 -47 157 C-48.37 152.85 -48.01 149.21 -47 145 C-44.31 139.79 -40.73 135.12 -37.12 130.51 C-35.92 128.98 -35.92 128.98 -35 127 C-34.34 127 -33.68 127 -33 127 C-32.94 126.2 -32.88 125.39 -32.81 124.56 C-31.73 119.82 -29.46 116.15 -27 112 C-26.67 111.34 -26.34 110.68 -26 110 C-25.34 110 -24.68 110 -24 110 C-24 109.01 -24 108.02 -24 107 C-23.34 107 -22.68 107 -22 107 C-21.88 106.39 -21.76 105.77 -21.63 105.14 C-21.38 103.92 -21.38 103.92 -21.12 102.69 C-20.88 101.49 -20.88 101.49 -20.63 100.26 C-20 98 -20 98 -18 95 C-17.34 95 -16.68 95 -16 95 C-15.92 93.7 -15.84 92.4 -15.75 91.06 C-15.17 85.82 -13.32 81.68 -11 77 C-6.89 68.13 -4.86 59.07 -3.43 49.43 C-3 47 -3 47 -2 45 C-1.77 40.75 -1.77 36.5 -1.76 32.25 C-1.75 30.14 -1.72 28.03 -1.69 25.92 C-1.68 24.57 -1.68 23.23 -1.67 21.88 C-1.66 20.05 -1.66 20.05 -1.64 18.18 C-2.03 14.74 -2.53 13.37 -5 11 C-7.66 10.22 -10.04 9.67 -12.75 9.25 C-13.44 9.12 -14.13 9 -14.84 8.87 C-19.28 8.11 -23.5 7.88 -28 8 C-28.33 8.66 -28.66 9.32 -29 10 C-31.65 10.59 -34.29 10.74 -37 11 C-37 11.66 -37 12.32 -37 13 C-37.58 13.31 -38.16 13.63 -38.76 13.95 C-42.4 15.95 -45.98 17.92 -49.38 20.31 C-52 22 -52 22 -55 22 C-55 22.66 -55 23.32 -55 24 C-56.77 25.23 -56.77 25.23 -59.38 26.75 C-65.97 30.8 -71.95 35.54 -77.98 40.38 C-78.73 40.97 -79.48 41.57 -80.25 42.18 C-80.93 42.73 -81.6 43.27 -82.3 43.83 C-84 45 -84 45 -86 45 C-86 45.66 -86 46.32 -86 47 C-87.32 47.33 -88.64 47.66 -90 48 C-90 48.66 -90 49.32 -90 50 C-91.72 51.54 -93.5 53.01 -95.31 54.44 C-99.16 57.45 -99.16 57.45 -102.73 60.79 C-104 62 -104 62 -106 62 C-106.33 62.99 -106.66 63.98 -107 65 C-107.66 65 -108.32 65 -109 65 C-109.5 66.48 -109.5 66.48 -110 68 C-111.44 69.69 -111.44 69.69 -113 71 C-113.66 71 -114.32 71 -115 71 C-115 71.66 -115 72.32 -115 73 C-116.66 74.34 -118.33 75.67 -120 77 C-120.66 77.83 -121.32 78.65 -122 79.5 C-124.1 82.13 -126.38 83.9 -129 86 C-130.36 87.64 -131.7 89.31 -133 91 C-134.62 92.81 -134.62 92.81 -136 94 C-136.66 94 -137.32 94 -138 94 C-138.5 95.48 -138.5 95.48 -139 97 C-139.99 97 -140.98 97 -142 97 C-142 97.66 -142 98.32 -142 99 C-142.62 99.6 -143.24 100.2 -143.88 100.81 C-146.12 103.13 -146.99 104.97 -148 108 C-148.66 108 -149.32 108 -150 108 C-150.5 109.48 -150.5 109.48 -151 111 C-151.66 111 -152.32 111 -153 111 C-153.5 112.48 -153.5 112.48 -154 114 C-154.66 114 -155.32 114 -156 114 C-156 114.99 -156 115.98 -156 117 C-156.66 117 -157.32 117 -158 117 C-158.23 117.7 -158.45 118.4 -158.69 119.12 C-160.95 124.08 -164.26 127.46 -168.44 130.81 C-171.87 133.66 -174.03 136.81 -176.39 140.57 C-178.17 143.26 -180.14 145.7 -182.19 148.19 C-185.01 151.65 -187.15 154.91 -189 159 C-190.56 161.38 -190.56 161.38 -192 163 C-192.66 163 -193.32 163 -194 163 C-194.33 163.99 -194.66 164.98 -195 166 C-195.99 166.66 -196.98 167.32 -198 168 C-199.44 170.4 -199.44 170.4 -200.69 173.12 C-201.12 174.04 -201.56 174.95 -202.01 175.88 C-202.34 176.58 -202.66 177.28 -203 178 C-203.66 178 -204.32 178 -205 178 C-205.33 179.65 -205.66 181.3 -206 183 C-206.66 183 -207.32 183 -208 183 C-208.1 183.57 -208.21 184.14 -208.32 184.73 C-209.11 187.37 -210.28 189.06 -211.94 191.25 C-212.46 191.96 -212.99 192.66 -213.53 193.39 C-214.26 194.19 -214.26 194.19 -215 195 C-215.66 195 -216.32 195 -217 195 C-217 195.66 -217 196.32 -217 197 C-218.32 197.33 -219.64 197.66 -221 198 C-221 198.66 -221 199.32 -221 200 C-222.77 200.11 -224.54 200.19 -226.31 200.25 C-227.3 200.3 -228.28 200.34 -229.3 200.39 C-232 200 -232 200 -233.81 198.12 C-236.57 193.2 -236.4 187.51 -236 182 C-234.98 178.46 -233.45 175.76 -231 173 C-230.34 173 -229.68 173 -229 173 C-229 172.34 -229 171.68 -229 171 C-227.36 169.64 -225.68 168.31 -224 167 C-221.77 164.83 -219.58 162.62 -217.46 160.35 C-216.03 158.85 -214.52 157.42 -213 156 C-212.01 156 -211.02 156 -210 156 C-209.98 155.3 -209.96 154.6 -209.94 153.88 C-208.72 150.15 -206.76 148.84 -203.69 146.53 C-201.82 144.84 -200.98 143.3 -200 141 C-199.34 141 -198.68 141 -198 141 C-197.62 140.16 -197.62 140.16 -197.23 139.29 C-195.84 136.69 -194.18 134.59 -192.31 132.31 C-191.6 131.43 -190.89 130.55 -190.15 129.64 C-188.82 128 -187.48 126.37 -186.13 124.73 C-182.17 119.83 -179.11 114.81 -176.26 109.19 C-175 107 -175 107 -173 106 C-170.6 102.51 -169.22 99.04 -168 95 C-167.34 95 -166.68 95 -166 95 C-165.92 94.3 -165.83 93.6 -165.75 92.88 C-164.83 89.34 -163.06 87 -161 84 C-160.3 82.35 -159.64 80.68 -159 79 C-158.68 78.22 -158.36 77.44 -158.04 76.64 C-157 74.1 -156 71.55 -155 69 C-154.71 68.31 -154.41 67.62 -154.11 66.91 C-151.9 61.26 -151.7 55.75 -151.49 49.76 C-151.22 44.4 -150.26 41.2 -147 37 C-147.35 36.49 -147.7 35.98 -148.06 35.46 C-150.81 31.31 -152.62 28.09 -153 23 C-154.56 22.46 -156.12 21.95 -157.69 21.44 C-158.56 21.15 -159.43 20.86 -160.32 20.56 C-163.85 19.82 -166.43 20.51 -169.81 21.56 C-173.21 22.24 -176.54 22.06 -180 22 C-181.12 20.25 -181.12 20.25 -182 18 C-181.27 15.01 -180.13 14.09 -177.62 12.31 C-169.44 9.35 -160.25 9.05 -152 12 C-144.14 15.94 -139.23 21.1 -136.31 29.38 C-135.83 30.9 -135.4 32.45 -135 34 C-134.81 34.63 -134.62 35.25 -134.43 35.9 C-132.71 42.29 -133.22 47.71 -134.25 54.19 C-134.39 55.15 -134.52 56.1 -134.66 57.09 C-135.37 61.92 -136.24 66.42 -138 71 C-138.51 72.36 -138.51 72.36 -139.04 73.74 C-139.54 75.01 -139.54 75.01 -140.06 76.31 C-140.57 77.61 -140.57 77.61 -141.1 78.93 C-142 81 -142 81 -143 82 C-143.37 84.33 -143.7 86.66 -144 89 C-143.34 89 -142.68 89 -142 89 C-142 88.34 -142 87.68 -142 87 C-140.53 85.55 -140.53 85.55 -138.5 83.88 C-133.22 79.38 -128.14 74.69 -123.81 69.25 C-121.79 66.75 -119.52 64.98 -117 63 C-116.67 62.34 -116.34 61.68 -116 61 C-115.34 61 -114.68 61 -114 61 C-113.67 60.01 -113.34 59.02 -113 58 C-111.43 56.46 -111.43 56.46 -109.44 54.81 C-105.62 51.6 -102.17 48.15 -98.76 44.5 C-97 43 -97 43 -94 43 C-93.67 42.01 -93.34 41.02 -93 40 C-92.34 40 -91.68 40 -91 40 C-90.67 39.01 -90.34 38.02 -90 37 C-88.34 35.99 -86.67 34.99 -85 34 C-84.28 33.28 -83.56 32.56 -82.81 31.81 C-78.84 27.84 -74.42 24.47 -70 21 C-69.13 20.26 -68.27 19.52 -67.38 18.75 C-65 17 -65 17 -62 17 C-61.67 16.01 -61.34 15.02 -61 14 C-58.78 12.57 -58.78 12.57 -55.94 11.12 C-52.52 9.35 -49.28 7.57 -46.12 5.38 C-41.76 2.57 -37.01 1.29 -32.05 -0.11 C-29.05 -0.91 -29.05 -0.91 -26.52 -2.09 C-18.38 -5.02 -7.75 -3.59 0 0 Z " fill="#000000" transform="translate(646,8)"/>
<path d="M0 0 C8.67 0 17.33 0 26 0 C26 0.66 26 1.32 26 2 C27.54 1.95 27.54 1.95 29.11 1.89 C30.47 1.87 31.83 1.84 33.19 1.81 C34.2 1.77 34.2 1.77 35.23 1.74 C39.7 1.67 42.46 2.24 46 5 C46.33 5.66 46.66 6.32 47 7 C48.09 7.31 49.19 7.62 50.31 7.94 C55.5 9.43 55.5 9.43 58 12 C58.71 14.65 59.16 16.92 59.44 19.62 C59.56 20.71 59.56 20.71 59.68 21.81 C60.19 27.57 59.68 31.82 57 37 C56.53 38.21 56.53 38.21 56.05 39.45 C52.11 47.98 44.35 51.75 36.03 55.27 C32.01 56.72 28.14 57.13 24 56 C23.01 55.34 22.02 54.68 21 54 C21.12 51.69 21.12 51.69 22 49 C24.95 47.21 27.73 46.09 31 45 C31 44.34 31 43.68 31 43 C32.66 41.99 34.33 40.99 36 40 C36.66 39.01 37.32 38.02 38 37 C38.66 37 39.32 37 40 37 C40.31 36.38 40.62 35.76 40.94 35.12 C41.62 33.75 42.31 32.38 43 31 C43.66 31 44.32 31 45 31 C45.33 29.02 45.66 27.04 46 25 C46.66 25 47.32 25 48 25 C48 21.7 48 18.4 48 15 C47.34 15 46.68 15 46 15 C45.42 14.2 44.85 13.4 44.25 12.58 C40.48 8.26 35.7 8.54 30.2 8.12 C18.27 6.87 18.27 6.87 7 9 C5.05 9.32 3.09 9.61 1.12 9.88 C-10.65 11.63 -22.24 14.39 -32.81 19.96 C-36.32 21.63 -40 22.83 -43.68 24.07 C-46.14 24.88 -46.14 24.88 -48 27 C-49.32 27 -50.64 27 -52 27 C-52 27.66 -52 28.32 -52 29 C-57.41 33 -57.41 33 -60 33 C-60 33.66 -60 34.32 -60 35 C-61.66 36.34 -63.33 37.67 -65 39 C-66.36 40.64 -67.7 42.31 -69 44 C-69.48 44.47 -69.96 44.93 -70.45 45.41 C-75.73 50.81 -77.33 56.06 -77.31 63.56 C-77.23 65.71 -77.14 67.86 -77 70 C-75.82 70.37 -75.82 70.37 -74.62 70.75 C-71.5 72.24 -71.45 73.01 -70 76 C-62.72 82.34 -55.67 85.88 -46.3 88.17 C-40.44 89.64 -35.01 92.05 -29.56 94.62 C-26.46 95.82 -23.93 96.41 -20.69 96.94 C-16.05 97.71 -12.11 99.01 -7.8 100.87 C-4.42 102.24 -0.97 103.33 2.5 104.44 C15.99 108.84 24.84 114.41 32 127 C35.28 135.81 34.35 145.96 31.13 154.68 C27.25 162.63 20.97 170.52 14 176 C12.92 176.26 12.92 176.26 11.83 176.52 C11.22 176.68 10.62 176.84 10 177 C9.67 177.99 9.34 178.98 9 180 C5.56 183 5.56 183 3 183 C3 183.66 3 184.32 3 185 C-7.43 189.95 -17.78 194.68 -28.79 198.21 C-31.09 199.03 -33.24 200.02 -35.44 201.06 C-39.5 202.93 -43.44 203.86 -47.84 204.61 C-50.17 204.98 -50.17 204.98 -53 206 C-55.56 206.11 -58.1 206.16 -60.66 206.17 C-61.41 206.17 -62.15 206.17 -62.92 206.18 C-64.49 206.18 -66.07 206.19 -67.64 206.19 C-70.06 206.19 -72.47 206.21 -74.88 206.22 C-76.41 206.23 -77.94 206.23 -79.47 206.23 C-80.2 206.24 -80.92 206.24 -81.67 206.25 C-86.77 206.23 -86.77 206.23 -89 204 C-91.29 203.85 -93.58 203.78 -95.88 203.75 C-106.97 203.3 -115.07 198.01 -123.84 191.52 C-125.84 190.11 -127.79 189.02 -130 188 C-130 187.34 -130 186.68 -130 186 C-130.93 185.63 -130.93 185.63 -131.88 185.25 C-134.4 183.76 -134.72 182.56 -136 180 C-136.58 179.74 -137.17 179.47 -137.77 179.2 C-140.8 177.57 -142.5 175.4 -144.69 172.75 C-145.48 171.82 -146.26 170.88 -147.07 169.92 C-149 167 -149 167 -149.42 163.79 C-149.61 162.87 -149.8 161.95 -150 161 C-152.5 159.47 -152.5 159.47 -155.62 158.62 C-161.93 156.29 -165.24 153.5 -169 148 C-169.68 147.05 -170.36 146.1 -171.06 145.12 C-172.45 140.51 -171.47 136.53 -170 132 C-168 129 -168 129 -165.44 128.25 C-164.63 128.17 -163.83 128.09 -163 128 C-162.67 128.33 -162.34 128.66 -162 129 C-162.28 130.4 -162.57 131.79 -162.88 133.19 C-163.3 135.62 -163.3 135.62 -163 138 C-161.37 140.03 -159.71 141.34 -157.57 142.81 C-156.79 143.4 -156.79 143.4 -156 144 C-156 144.66 -156 145.32 -156 146 C-155.01 146 -154.02 146 -153 146 C-153.23 145.09 -153.45 144.19 -153.69 143.25 C-154.54 137.23 -153.05 130.28 -149.82 125.12 C-148.56 123.75 -148.56 123.75 -146 122 C-144.68 122 -143.36 122 -142 122 C-142.5 124.58 -143.17 126.28 -144.53 128.56 C-146.42 132.99 -146.34 136.62 -146.19 141.38 C-146.17 142.21 -146.16 143.04 -146.15 143.89 C-146.11 145.93 -146.06 147.97 -146 150 C-144.91 150.47 -143.81 150.94 -142.69 151.43 C-141.77 151.83 -141.77 151.83 -140.82 152.23 C-135.91 154.3 -131.27 155.28 -126 156 C-125.67 156.33 -125.34 156.66 -125 157 C-123.52 157.13 -122.04 157.2 -120.55 157.25 C-119.19 157.3 -119.19 157.3 -117.79 157.35 C-115.87 157.41 -113.95 157.46 -112.03 157.52 C-106.64 157.72 -102.13 158.39 -97 160 C-95.68 160 -94.36 160 -93 160 C-90.57 160.05 -88.13 160.09 -85.7 160.14 C-83.46 160.17 -81.23 160.2 -79 160.22 C-77.48 160.24 -75.96 160.27 -74.44 160.3 C-64.82 160.52 -56.47 159.8 -47.25 156.96 C-39.24 154.59 -39.24 154.59 -35 156 C-35 156.99 -35 157.98 -35 159 C-43.38 165.11 -54.68 165.46 -64.68 166.35 C-68.97 166.64 -68.97 166.64 -73 168 C-77.18 168.25 -81.37 168.19 -85.56 168.19 C-86.78 168.19 -88.01 168.19 -89.27 168.19 C-97.49 168.14 -105.46 167.6 -113.6 166.44 C-116.49 166.07 -119.16 165.92 -122.06 166 C-126.47 166 -129.76 165.13 -134 164 C-136.83 163.83 -136.83 163.83 -139 164 C-136.31 167.59 -133.54 170.26 -130 173 C-129.16 173.99 -129.16 173.99 -128.31 175 C-125.26 177.64 -122.01 178.72 -118.24 180.07 C-116 181 -116 181 -114 183 C-111.8 183.46 -111.8 183.46 -109.38 183.62 C-108.56 183.7 -107.74 183.77 -106.9 183.85 C-105.96 183.93 -105.96 183.93 -105 184 C-104.67 184.99 -104.34 185.98 -104 187 C-103.01 187.33 -102.02 187.66 -101 188 C-101 188.99 -101 189.98 -101 191 C-100.34 190.67 -99.68 190.34 -99 190 C-97.46 189.93 -95.91 189.92 -94.37 189.94 C-93.43 189.95 -92.48 189.95 -91.51 189.96 C-90.49 189.98 -89.48 189.99 -88.44 190 C-79.72 190.06 -71.1 189.83 -62.4 189.22 C-60.33 189.09 -58.26 189.01 -56.19 189.02 C-53.41 188.99 -51.54 188.11 -49 187 C-47 186.33 -45 185.67 -43 185 C-42.34 184.67 -41.68 184.34 -41 184 C-39.21 183.92 -37.42 183.86 -35.62 183.81 C-28.65 183.29 -22.75 181 -17 177 C-15.84 174.93 -15.84 174.93 -15 173 C-13 172.32 -11 171.66 -9 171 C-7.32 169.79 -7.32 169.79 -5.75 168.38 C-3 166 -3 166 -1 166 C-1 165.34 -1 164.68 -1 164 C-0.26 163.94 0.49 163.88 1.25 163.81 C4.82 162.76 5.78 160.89 8 158 C8.99 158 9.98 158 11 158 C11 157.34 11 156.68 11 156 C11.66 155.67 12.32 155.34 13 155 C13.72 153.42 14.43 151.84 15.07 150.23 C15.76 148.57 16.52 146.93 17.3 145.3 C17.76 144.36 18.22 143.41 18.69 142.44 C19.12 141.55 19.56 140.66 20.01 139.75 C21.38 135.95 21.74 132.72 20.12 128.95 C19.75 128.39 19.38 127.83 19 127.25 C17 124 17 124 17 122 C16.38 121.69 15.76 121.38 15.12 121.06 C13.75 120.38 12.38 119.69 11 119 C11 118.34 11 117.68 11 117 C9.92 116.57 9.92 116.57 8.82 116.13 C7.02 115.41 5.23 114.69 3.43 113.96 C2.17 113.46 2.17 113.46 0.88 112.94 C-0.4 112.43 -0.4 112.43 -1.7 111.9 C-3.44 111.22 -5.22 110.59 -7 110 C-7 109.34 -7 108.68 -7 108 C-7.64 107.94 -8.28 107.88 -8.93 107.82 C-10.17 107.69 -10.17 107.69 -11.44 107.56 C-12.67 107.44 -12.67 107.44 -13.93 107.32 C-16 107 -16 107 -17 106 C-18.7 105.69 -20.41 105.43 -22.12 105.19 C-28.39 104.19 -34.42 102.63 -40.52 100.94 C-43.28 100.19 -46.02 99.52 -48.81 98.94 C-56.2 97.35 -63.08 95.02 -70 92 C-71.39 91.53 -72.79 91.07 -74.19 90.62 C-79.93 88.77 -85.45 86.37 -91 84 C-91 83.34 -91 82.68 -91 82 C-91.56 81.96 -92.11 81.92 -92.69 81.88 C-96.72 80.35 -98.89 76.78 -101.12 73.21 C-103.59 67.04 -102.94 59.51 -100.66 53.41 C-99.21 50.53 -97.69 47.75 -96 45 C-95.34 45 -94.68 45 -94 45 C-93.89 44.41 -93.79 43.83 -93.68 43.22 C-92.19 38.34 -87.39 33.49 -83 31 C-81.68 31 -80.36 31 -79 31 C-78.5 29.52 -78.5 29.52 -78 28 C-76.4 26.57 -76.4 26.57 -74.38 25.12 C-73.4 24.42 -73.4 24.42 -72.4 23.7 C-71.61 23.14 -70.82 22.58 -70 22 C-69.25 21.4 -69.25 21.4 -68.47 20.78 C-63.95 17.28 -59.71 15.72 -54.19 14.38 C-52.6 13.96 -51.01 13.55 -49.42 13.13 C-48.66 12.94 -47.9 12.75 -47.12 12.55 C-44.38 11.84 -41.66 11.06 -38.94 10.25 C-38.18 10.03 -37.43 9.81 -36.65 9.58 C-34.98 9.13 -34.98 9.13 -34 8 C-32.7 7.65 -31.38 7.34 -30.06 7.06 C-28.85 6.8 -28.85 6.8 -27.62 6.54 C-25.85 6.17 -24.09 5.83 -22.32 5.5 C-21.45 5.33 -20.58 5.17 -19.69 5 C-18.89 4.86 -18.09 4.71 -17.26 4.56 C-14.98 4.1 -14.98 4.1 -13.07 2.95 C-10.36 1.71 -8.21 1.8 -5.25 1.88 C-4.27 1.89 -3.28 1.91 -2.27 1.93 C-1.14 1.96 -1.14 1.96 0 2 C0 1.34 0 0.68 0 0 Z " fill="#000000" transform="translate(174,0)"/>
<path d="M0 0 C2.06 1.94 2.06 1.94 2.38 5.62 C2.27 6.72 2.17 7.81 2.06 8.94 C1.4 8.94 0.74 8.94 0.06 8.94 C-0.01 9.53 -0.08 10.13 -0.16 10.74 C-1.22 13.74 -2.75 14.44 -5.44 16.06 C-8.78 17.94 -8.78 17.94 -10.94 20.94 C-6.11 19.67 -6.11 19.67 -2.94 15.94 C-0.62 15.57 -0.62 15.57 2.06 15.62 C2.95 15.63 3.84 15.63 4.75 15.64 C7.06 15.94 7.06 15.94 9.06 17.94 C14 18.26 16.69 18.2 21.06 15.94 C22.57 15.54 24.09 15.18 25.62 14.88 C28.2 14.35 30.56 13.77 33.06 12.94 C35.25 13.88 35.25 13.88 37.06 14.94 C35.95 17.69 34.9 19.5 32.21 20.9 C26.6 22.9 20.99 23.58 15.06 23.94 C15.54 25.01 15.54 25.01 16.04 26.1 C19.83 36.61 18.66 52.44 14.25 62.62 C13.24 64.75 12.18 66.86 11.06 68.94 C10.06 70.94 9.06 72.94 8.06 74.94 C7.4 74.94 6.74 74.94 6.06 74.94 C5.96 75.51 5.85 76.08 5.75 76.67 C4.95 79.31 3.78 81 2.12 83.19 C1.6 83.89 1.08 84.6 0.54 85.33 C-0.19 86.12 -0.19 86.12 -0.94 86.94 C-1.6 86.94 -2.26 86.94 -2.94 86.94 C-3.43 88.42 -3.43 88.42 -3.94 89.94 C-4.6 89.94 -5.26 89.94 -5.94 89.94 C-6.2 90.53 -6.47 91.12 -6.75 91.73 C-12.3 102.03 -25.67 110.3 -36.38 114.19 C-37.22 114.44 -38.07 114.68 -38.94 114.94 C-39.93 115.43 -39.93 115.43 -40.94 115.94 C-44.33 116.23 -47.72 116.22 -51.12 116.25 C-52.06 116.28 -52.99 116.31 -53.96 116.34 C-60.19 116.39 -63.81 115.53 -68.94 111.94 C-68.94 111.28 -68.94 110.62 -68.94 109.94 C-69.6 109.94 -70.26 109.94 -70.94 109.94 C-76.18 102.79 -75.44 92.7 -74.57 84.21 C-72.16 71.73 -66.61 57.1 -56.35 49.34 C-53.94 46.94 -54.06 44.19 -53.94 40.94 C-53.61 40.28 -53.28 39.62 -52.94 38.94 C-52.28 38.94 -51.62 38.94 -50.94 38.94 C-50.61 37.95 -50.28 36.96 -49.94 35.94 C-49.28 35.94 -48.62 35.94 -47.94 35.94 C-47.61 34.95 -47.28 33.96 -46.94 32.94 C-46.28 32.94 -45.62 32.94 -44.94 32.94 C-43.54 30.64 -42.86 29.46 -43.25 26.75 C-43.79 24.95 -43.79 24.95 -44.94 23.94 C-44.94 22.29 -44.94 20.64 -44.94 18.94 C-40.32 18.94 -35.7 18.94 -30.94 18.94 C-30.44 17.45 -30.44 17.45 -29.94 15.94 C-29.28 15.94 -28.62 15.94 -27.94 15.94 C-27.67 15.36 -27.4 14.78 -27.13 14.18 C-21.84 4.22 -11.56 -4.18 0 0 Z M-8.25 27.75 C-8.91 27.82 -9.58 27.89 -10.26 27.96 C-14.47 28.48 -17.56 29.34 -20.94 31.94 C-20.94 32.6 -20.94 33.26 -20.94 33.94 C-21.93 34.27 -22.92 34.6 -23.94 34.94 C-23.94 35.6 -23.94 36.26 -23.94 36.94 C-24.93 37.27 -25.92 37.6 -26.94 37.94 C-26.94 38.6 -26.94 39.26 -26.94 39.94 C-27.93 40.27 -28.92 40.6 -29.94 40.94 C-29.94 41.6 -29.94 42.26 -29.94 42.94 C-30.93 43.27 -31.92 43.6 -32.94 43.94 C-32.94 44.6 -32.94 45.26 -32.94 45.94 C-33.6 45.94 -34.26 45.94 -34.94 45.94 C-36.42 47.62 -36.42 47.62 -37.88 49.75 C-39.37 51.85 -40.74 53.75 -42.63 55.51 C-44.28 56.98 -44.28 56.98 -43.94 59.94 C-44.6 59.94 -45.26 59.94 -45.94 59.94 C-49.57 66.59 -52.64 72.28 -52.94 79.94 C-53.6 79.94 -54.26 79.94 -54.94 79.94 C-56.74 81.59 -56.74 81.59 -57.94 83.94 C-57.62 86.54 -57.62 86.54 -56.94 88.94 C-57.27 89.6 -57.6 90.26 -57.94 90.94 C-58.53 96.6 -58.23 101.11 -54.94 105.94 C-53.2 107.51 -53.2 107.51 -50.94 107.94 C-46.34 107.36 -42 106.17 -37.56 104.88 C-35.69 104.33 -35.69 104.33 -33.79 103.78 C-32.85 103.5 -31.91 103.22 -30.94 102.94 C-30.61 101.62 -30.28 100.3 -29.94 98.94 C-29.28 98.94 -28.62 98.94 -27.94 98.94 C-27.94 98.28 -27.94 97.62 -27.94 96.94 C-27.32 96.69 -26.7 96.44 -26.06 96.19 C-23.59 94.73 -22.99 93.56 -21.94 90.94 C-21.28 90.94 -20.62 90.94 -19.94 90.94 C-18.59 89.22 -18.59 89.22 -17.25 87 C-14.5 82.7 -11.48 78.74 -8.26 74.79 C-6.74 73.04 -6.74 73.04 -6.94 70.94 C-5.95 70.61 -4.96 70.28 -3.94 69.94 C-2.57 67.93 -2.57 67.93 -1.44 65.44 C-1.04 64.62 -0.63 63.81 -0.22 62.97 C2.92 55.55 4.55 49.28 4.44 41.19 C4.45 40.36 4.46 39.54 4.47 38.69 C4.45 34 4.19 30.69 1.06 26.94 C-2.07 26.94 -5.15 27.37 -8.25 27.75 Z " fill="#000000" transform="translate(1138.9375,67.0625)"/>
<path d="M0 0 C2 2 2 2 2 6 C-0.44 8.12 -0.44 8.12 -3 10 C-3.33 10.66 -3.66 11.32 -4 12 C-4.66 12 -5.32 12 -6 12 C-6.41 13.1 -6.41 13.1 -6.82 14.23 C-7.95 16.88 -9.22 18.97 -10.88 21.31 C-12.91 24.28 -14.69 27.2 -16.25 30.44 C-18 34 -18 34 -20 36 C-20.69 37.66 -21.36 39.32 -22 41 C-22.86 42.78 -23.73 44.55 -24.62 46.31 C-25.07 47.2 -25.52 48.08 -25.98 48.99 C-26.31 49.65 -26.65 50.32 -27 51 C-25.04 50.86 -23.08 50.71 -21.12 50.56 C-20.03 50.48 -18.94 50.4 -17.82 50.32 C-15.05 50.17 -15.05 50.17 -13 49 C-10.22 48.71 -7.47 48.49 -4.69 48.31 C-3.93 48.25 -3.17 48.19 -2.38 48.13 C2.02 47.85 4.93 48.1 9 50 C11.4 50.41 11.4 50.41 13.75 50.56 C17.9 50.9 17.9 50.9 19 52 C19.04 53.67 19.04 55.33 19 57 C15.94 58.02 14.43 58.01 11.28 57.74 C0.82 56.96 -7.33 56.44 -17 61 C-22.9 62.72 -28.89 63.42 -35 64 C-35.08 64.68 -35.16 65.36 -35.25 66.06 C-36.06 69.25 -37.35 71.51 -39.02 74.31 C-40.26 76.46 -41.11 78.69 -42 81 C-43.29 83.64 -44.6 86.25 -45.98 88.84 C-48.53 93.75 -50.38 98.71 -52 104 C-48.43 103.39 -45.33 102.4 -42 101 C-41.01 100.67 -40.02 100.34 -39 100 C-39 99.34 -39 98.68 -39 98 C-33.59 94 -33.59 94 -31 94 C-31 93.34 -31 92.68 -31 92 C-27.58 89.46 -25.24 88.64 -21 89 C-20.71 91.28 -20.71 91.28 -21 94 C-23.01 95.88 -23.01 95.88 -25.69 97.56 C-26.6 98.15 -27.51 98.74 -28.45 99.35 C-29.29 99.9 -30.13 100.44 -31 101 C-31.99 101.8 -32.98 102.61 -34 103.44 C-36 105 -36 105 -38 105 C-38 105.66 -38 106.32 -38 107 C-38.98 108.02 -39.98 109.02 -41 110 C-41.33 110.66 -41.66 111.32 -42 112 C-42.66 112 -43.32 112 -44 112 C-44.37 112.84 -44.37 112.84 -44.75 113.69 C-46.23 116.42 -48.03 118.59 -50 121 C-50.94 122.27 -51.88 123.54 -52.81 124.81 C-55.51 128.44 -58.43 131.81 -61.48 135.14 C-63.08 136.95 -63.08 136.95 -64.04 139.19 C-64.36 139.79 -64.67 140.38 -65 141 C-67.62 141.75 -67.62 141.75 -70 142 C-70.33 142.99 -70.66 143.98 -71 145 C-73.31 146.38 -73.31 146.38 -76 147 C-78.31 145.62 -78.31 145.62 -80 144 C-79.29 139.57 -77.8 135.54 -76.19 131.38 C-75.64 129.94 -75.09 128.51 -74.54 127.07 C-74.28 126.38 -74.01 125.68 -73.74 124.96 C-72.77 122.39 -71.89 119.79 -71 117.19 C-68.71 110.84 -65.82 103.82 -61 99 C-60.3 97.35 -59.64 95.68 -59 94 C-58.14 92.06 -57.26 90.12 -56.38 88.19 C-55.93 87.21 -55.48 86.24 -55.02 85.23 C-54.69 84.49 -54.35 83.76 -54 83 C-53.34 83 -52.68 83 -52 83 C-51.92 82.15 -51.84 81.31 -51.75 80.44 C-51.09 77.43 -50.48 75.87 -48.94 73.31 C-46.75 70.21 -46.75 70.21 -47 67 C-47.36 67.46 -47.73 67.91 -48.11 68.38 C-50.66 70.56 -53.08 71.07 -56.31 71.94 C-62.72 73.81 -67.19 75.29 -71 81 C-71.66 81 -72.32 81 -73 81 C-73.27 81.6 -73.54 82.2 -73.81 82.81 C-75.01 85.01 -76.25 86.25 -78 88 C-78.43 88.77 -78.86 89.53 -79.3 90.32 C-81.17 93.27 -83.12 95.15 -85.81 97.38 C-86.64 98.08 -87.48 98.79 -88.33 99.52 C-91.68 101.38 -93.38 100.98 -97 100 C-95.28 96.97 -93.71 94.24 -91 92 C-90.34 92 -89.68 92 -89 92 C-88.67 91.01 -88.34 90.02 -88 89 C-87.34 89 -86.68 89 -86 89 C-85.67 88.01 -85.34 87.02 -85 86 C-84.05 85.38 -83.1 84.76 -82.12 84.12 C-78.93 81.95 -77.84 80.31 -76 77 C-75.34 77 -74.68 77 -74 77 C-74.03 76.02 -74.07 75.05 -74.11 74.04 C-74.13 72.77 -74.16 71.5 -74.19 70.19 C-74.24 68.29 -74.24 68.29 -74.29 66.36 C-74 63 -74 63 -72.84 61.16 C-70.41 59.63 -68.09 59 -65.31 58.31 C-64.32 58.06 -63.32 57.81 -62.3 57.55 C-61.54 57.37 -60.78 57.19 -60 57 C-60 56.01 -60 55.02 -60 54 C-59.34 54 -58.68 54 -58 54 C-57.76 53.3 -57.52 52.59 -57.27 51.87 C-55.79 48.52 -53.87 45.96 -51.62 43.06 C-49.25 39.98 -46.96 36.94 -44.84 33.68 C-43 31 -43 31 -41 30 C-39.98 28.24 -38.96 26.48 -38 24.69 C-37 23 -37 23 -35 21 C-34.61 19.99 -34.22 18.98 -33.81 17.94 C-31.42 12.15 -27.47 7.07 -22.69 3.06 C-15.64 0.27 -7.55 -0.99 0 0 Z M-30 26 C-33.78 29.48 -33.78 29.48 -36 34 C-36.66 34 -37.32 34 -38 34 C-39.99 36.5 -39.99 36.5 -42 39.62 C-42.7 40.67 -43.4 41.71 -44.12 42.79 C-45.9 45.83 -47.03 48.63 -48 52 C-48.66 52 -49.32 52 -50 52 C-50 52.99 -50 53.98 -50 55 C-48.4 54.89 -46.79 54.76 -45.19 54.62 C-44.29 54.56 -43.4 54.49 -42.48 54.41 C-39.76 54.13 -39.76 54.13 -37 52 C-35.94 49.71 -35.94 49.71 -35 47 C-33.46 43.78 -31.91 40.56 -30.34 37.35 C-28.94 33.86 -28.38 30.73 -28 27 C-28.66 26.67 -29.32 26.34 -30 26 Z " fill="#000000" transform="translate(1070,35)"/>
<path d="M0 0 C0.49 1.48 0.49 1.48 1 3 C0.67 3.66 0.34 4.32 0 5 C-0.66 5 -1.32 5 -2 5 C-2 5.66 -2 6.32 -2 7 C-3.88 9.12 -3.88 9.12 -6 11 C-6.66 11 -7.32 11 -8 11 C-8.08 11.56 -8.16 12.11 -8.25 12.69 C-9.23 15.71 -10.98 17.56 -13 20 C-15.38 23.57 -16.67 26.94 -18 31 C-18.61 32.36 -19.24 33.71 -19.88 35.06 C-22.5 40.86 -24.23 46.9 -26 53 C-26.34 54.18 -26.34 54.18 -26.7 55.39 C-27.14 56.92 -27.57 58.46 -28 60 C-27.05 59.24 -26.1 58.47 -25.12 57.69 C-24.59 57.26 -24.06 56.83 -23.51 56.39 C-21.75 54.88 -21.75 54.88 -20 52 C-19.34 52 -18.68 52 -18 52 C-17.74 51.43 -17.48 50.86 -17.22 50.27 C-15.89 47.79 -14.35 45.87 -12.5 43.75 C-11.59 42.69 -11.59 42.69 -10.66 41.61 C-9 40 -9 40 -7 40 C-6.77 39.44 -6.55 38.89 -6.31 38.31 C-4.64 35.36 -2.42 33.36 0 31 C0.77 29.89 0.77 29.89 1.56 28.75 C3 27 3 27 4.87 26.64 C7.73 25.78 8.71 24.32 10.56 22 C13.69 18.1 13.69 18.1 17 17 C17 16.34 17 15.68 17 15 C25.04 7.68 33.65 4.69 44.31 3.69 C47.69 4.08 49.35 4.86 52 7 C52.49 10.14 52.49 10.14 52.31 13.69 C52.27 14.87 52.22 16.05 52.18 17.26 C52.12 18.17 52.06 19.07 52 20 C51.34 20 50.68 20 50 20 C50 20.66 50 21.32 50 22 C49.01 22 48.02 22 47 22 C46.51 23.48 46.51 23.48 46 25 C44.22 26.61 44.22 26.61 42.06 28.19 C41.35 28.72 40.64 29.25 39.91 29.79 C38 31 38 31 36 31 C34.4 34.49 33.68 37.15 34 41 C35.9 42.9 38.57 42.12 41.09 42.13 C43.09 42.12 43.09 42.12 45 41 C47.33 40.96 49.67 40.96 52 41 C52 45 52 45 50.44 46.69 C43.62 50.36 32.4 50.31 25.15 48.15 C23 47 23 47 22.19 44.38 C22.13 43.59 22.06 42.81 22 42 C21.34 42 20.68 42 20 42 C20 37.05 20 32.1 20 27 C18.35 27.33 16.7 27.66 15 28 C15 28.66 15 29.32 15 30 C13.67 31.3 13.67 31.3 11.75 32.88 C7.84 36.19 4.18 39.69 0.56 43.31 C-0.24 44.1 -0.24 44.1 -1.05 44.91 C-3.87 47.69 -3.87 47.69 -6 51 C-6.66 51 -7.32 51 -8 51 C-8.33 51.99 -8.66 52.98 -9 54 C-9.66 54 -10.32 54 -11 54 C-11.23 54.52 -11.45 55.03 -11.69 55.56 C-13.48 58.9 -15.5 62.15 -18 65 C-18.66 65 -19.32 65 -20 65 C-20 65.99 -20 66.98 -20 68 C-20.66 68 -21.32 68 -22 68 C-22.33 69.65 -22.66 71.3 -23 73 C-23.66 73 -24.32 73 -25 73 C-25.27 73.73 -25.54 74.45 -25.82 75.2 C-26.96 77.91 -28.27 80.26 -29.81 82.75 C-31.84 86.06 -33.78 89.39 -35.62 92.81 C-40.18 101.09 -40.18 101.09 -44 103 C-49.59 103.44 -53.22 102.77 -58 100 C-59.09 97.04 -59.22 95.56 -58.07 92.6 C-57.57 91.76 -57.07 90.92 -56.56 90.06 C-56.01 89.11 -55.46 88.15 -54.89 87.16 C-54.26 86.12 -53.64 85.08 -53 84 C-51.62 81.65 -50.24 79.3 -48.88 76.94 C-48.53 76.35 -48.19 75.76 -47.83 75.15 C-45.38 70.86 -43.47 66.56 -41.89 61.89 C-41 60 -41 60 -38 58 C-37.05 55.6 -37.05 55.6 -36.44 52.81 C-36.19 51.83 -35.94 50.84 -35.69 49.83 C-35.46 48.89 -35.23 47.96 -35 47 C-33.3 40.55 -33.3 40.55 -31.98 38.17 C-30.77 35.49 -30.58 33.18 -30.38 30.25 C-30.3 29.27 -30.23 28.28 -30.15 27.27 C-30.07 26.14 -30.07 26.14 -30 25 C-33.12 25.65 -33.12 25.65 -34 28 C-34.99 28 -35.98 28 -37 28 C-37 28.66 -37 29.32 -37 30 C-40.46 30.5 -40.46 30.5 -44 31 C-44.75 29.25 -44.75 29.25 -45 27 C-43.19 24.75 -43.19 24.75 -41 23 C-40.34 23 -39.68 23 -39 23 C-38.71 22.28 -38.42 21.56 -38.12 20.81 C-37.08 18.21 -36.04 15.6 -35 13 C-34.34 13 -33.68 13 -33 13 C-32.77 12.46 -32.55 11.93 -32.31 11.38 C-29.02 5.41 -25.6 1.92 -19 0 C-5.1 -3.46 -5.1 -3.46 0 0 Z " fill="#000000" transform="translate(1228,77)"/>
<path d="M0 0 C3.61 1.65 6.79 3.68 10 6 C10.76 6.52 11.51 7.04 12.29 7.57 C12.85 8.04 13.42 8.52 14 9 C14 9.66 14 10.32 14 11 C14.99 11.33 15.98 11.66 17 12 C20.04 18.53 18.32 23.5 16 30 C15.34 30 14.68 30 14 30 C13.5 31.48 13.5 31.48 13 33 C7.14 38.37 0.5 41.56 -7 44 C-7.33 44.33 -7.66 44.66 -8 45 C-9.11 45.14 -10.23 45.29 -11.38 45.44 C-15.09 45.75 -15.09 45.75 -18 48 C-19.65 48.42 -21.32 48.77 -23 49.06 C-25.79 49.57 -28.3 50.1 -31 51 C-32.11 52.55 -32.11 52.55 -32.97 54.49 C-33.31 55.2 -33.66 55.9 -34.01 56.63 C-34.36 57.37 -34.7 58.11 -35.06 58.88 C-35.76 60.33 -36.46 61.79 -37.16 63.24 C-37.62 64.21 -37.62 64.21 -38.09 65.21 C-39 67 -39 67 -41 70 C-39.51 70.5 -39.51 70.5 -38 71 C-38.21 72.11 -38.41 73.23 -38.62 74.38 C-39.24 79.47 -38.74 84.17 -37 89 C-34.15 92.02 -31.37 92.22 -27.38 92.44 C-18.23 92.16 -9.26 87.92 -1.81 82.81 C1 81 1 81 4 81 C4.5 79.51 4.5 79.51 5 78 C9.33 75 9.33 75 12 75 C12.5 73.51 12.5 73.51 13 72 C14.64 70.31 16.31 68.65 18 67 C18.72 66.07 19.44 65.14 20.19 64.19 C20.79 63.47 21.38 62.74 22 62 C22.66 62 23.32 62 24 62 C24.25 61.43 24.5 60.86 24.75 60.27 C26.18 57.66 27.85 55.85 29.94 53.75 C30.63 53.04 31.32 52.34 32.03 51.61 C34 50 34 50 37 50 C37.42 55.06 36.54 57.34 33.44 61.31 C32.71 62.26 31.98 63.2 31.23 64.18 C30.49 65.11 29.76 66.04 29 67 C28.05 68.27 28.05 68.27 27.09 69.57 C24.03 73.65 21.13 76.95 17 80 C16.17 80.82 15.35 81.65 14.5 82.5 C12.11 84.89 9.73 87.01 7 89 C6.34 89 5.68 89 5 89 C5 89.66 5 90.32 5 91 C-5.33 96.81 -5.33 96.81 -10 99 C-10.65 99.34 -11.29 99.68 -11.96 100.04 C-21.42 104.53 -35.03 105.76 -45.18 102.79 C-50.53 100.47 -54.56 97.4 -57 92 C-59.11 86.35 -59.47 80.97 -59 75 C-58.5 74.01 -58.5 74.01 -58 73 C-57.73 70.77 -57.56 68.53 -57.38 66.29 C-56.97 63.84 -56.13 62.19 -55 60 C-54.67 58.53 -54.38 57.05 -54.12 55.56 C-53.26 51.41 -51.8 49.23 -49 46 C-48.5 44.82 -48.01 43.65 -47.5 42.44 C-46.03 39.07 -44.87 37.24 -42 35 C-41.01 35 -40.02 35 -39 35 C-39 33.35 -39 31.7 -39 30 C-38.34 30 -37.68 30 -37 30 C-36.57 29.1 -36.57 29.1 -36.12 28.19 C-35 26 -35 26 -33 23 C-32.34 23 -31.68 23 -31 23 C-30.67 22.01 -30.34 21.02 -30 20 C-29.34 20 -28.68 20 -28 20 C-27.91 19.16 -27.91 19.16 -27.81 18.31 C-26.62 14.93 -24.75 13.25 -22 11 C-19.19 10.69 -19.19 10.69 -17 11 C-16.96 9.93 -16.92 8.86 -16.88 7.75 C-16 4 -16 4 -13.56 1.56 C-8.82 -0.52 -5.1 -1.01 0 0 Z M0 12 C-2.01 13.29 -2.01 13.29 -3.94 15.19 C-4.64 15.83 -5.34 16.48 -6.06 17.15 C-7.02 18.06 -7.02 18.06 -8 19 C-8.83 19.76 -9.65 20.53 -10.5 21.31 C-12.22 22.87 -12.22 22.87 -12 25 C-12.99 25.33 -13.98 25.66 -15 26 C-16.38 27.97 -17.7 29.98 -19 32 C-19.9 33.07 -20.82 34.14 -21.75 35.19 C-24.31 37.79 -24.31 37.79 -24 41 C-15.4 41.91 -5.91 36.85 1 32 C4.57 27.9 5.9 24.45 6 19 C4.9 15.63 4.9 15.63 3 13 C2.01 12.67 1.02 12.34 0 12 Z " fill="#000000" transform="translate(815,77)"/>
<path d="M0 0 C2.21 1.65 2.91 2.65 3.57 5.35 C3.88 12.68 2.02 16.3 -2.86 21.71 C-3.92 22.84 -3.92 22.84 -5 24 C-5.67 24.85 -6.33 25.69 -7.02 26.56 C-11.13 31.62 -16.23 35.95 -22 39 C-23.05 39.59 -23.05 39.59 -24.12 40.19 C-26 41 -26 41 -29 41 C-29.81 38.44 -29.81 38.44 -30 35 C-28.62 32.45 -26.79 30.28 -25 28 C-21.78 22.9 -21.65 18.85 -22 13 C-31.75 11.86 -38.09 16.34 -45.72 22.03 C-48.42 24.37 -50.04 27.03 -52 30 C-52.66 30 -53.32 30 -54 30 C-54.24 30.68 -54.48 31.37 -54.72 32.07 C-56.54 36.25 -59.1 39.89 -61.63 43.65 C-64.26 47.63 -66.27 51.54 -68 56 C-68.27 56.67 -68.55 57.35 -68.83 58.05 C-71.13 64.13 -71.52 69.78 -71.5 76.25 C-71.54 77.7 -71.54 77.7 -71.59 79.18 C-71.63 85.12 -71.63 85.12 -68.47 90.05 C-67.65 90.69 -66.84 91.34 -66 92 C-66 92.66 -66 93.32 -66 94 C-46.98 94.7 -33.32 92.07 -17 82 C-15.68 81.31 -14.35 80.64 -13 80 C-13 79.34 -13 78.68 -13 78 C-6.25 74 -6.25 74 -4 74 C-3.5 72.51 -3.5 72.51 -3 71 C-2.34 71 -1.68 71 -1 71 C-0.63 70.13 -0.63 70.13 -0.25 69.25 C1.21 66.62 2.64 64.88 5 63 C7.25 63.25 7.25 63.25 9 64 C8.46 69.97 4.5 75.19 0 79 C-0.99 79 -1.98 79 -3 79 C-3 79.66 -3 80.32 -3 81 C-3.58 81.23 -4.15 81.45 -4.75 81.69 C-7.15 82.89 -7.15 82.89 -8.69 85.27 C-11.52 88.61 -14.6 90.7 -18.25 93.06 C-18.88 93.48 -19.51 93.9 -20.16 94.34 C-36.8 105.27 -55.64 109.85 -75.46 105.82 C-79.71 104.44 -82.74 101.99 -86 99 C-86.99 98.13 -87.98 97.27 -89 96.38 C-91 94 -91 94 -91 90 C-91.66 90 -92.32 90 -93 90 C-95.07 83.78 -95.29 75.36 -92.92 69.19 C-91.56 66.88 -91.56 66.88 -90.19 64.93 C-88.78 62.64 -88.5 60.62 -88 58 C-87.34 57.01 -86.68 56.02 -86 55 C-85.71 54.07 -85.42 53.14 -85.12 52.19 C-83.65 48.01 -81.58 44.52 -78.38 41.44 C-76.82 40.01 -76.82 40.01 -76.12 37.62 C-74.69 34.27 -72.62 32.56 -70 30 C-68.21 27.69 -66.47 25.35 -64.75 22.99 C-62.95 20.94 -61.5 20.02 -59 19 C-59 18.34 -59 17.68 -59 17 C-57.36 15.49 -57.36 15.49 -55.19 13.88 C-54.48 13.34 -53.77 12.8 -53.04 12.24 C-51 11 -51 11 -48 11 C-48 10.34 -48 9.68 -48 9 C-42.61 6.37 -37.97 4.62 -32 4 C-31.67 3.67 -31.34 3.34 -31 3 C-23.5 2.58 -23.5 2.58 -20 5 C-19.5 5.99 -19.5 5.99 -19 7 C-16.98 7.65 -16.98 7.65 -15 8 C-14.67 7.01 -14.34 6.02 -14 5 C-9.82 1.46 -5.59 -1.04 0 0 Z " fill="#000000" transform="translate(316,75)"/>
<path d="M0 0 C0.66 0.33 1.32 0.66 2 1 C2 1.66 2 2.32 2 3 C2.73 3.1 3.46 3.2 4.21 3.3 C10.06 4.77 14.76 9.15 18.06 14.06 C19.59 18.85 19.38 21.85 17.81 26.62 C15.91 30.18 14.26 31.72 11 34 C10.54 34.48 10.08 34.96 9.61 35.45 C5.12 39.77 -1.12 42.24 -7 44 C-8.77 44.69 -10.54 45.37 -12.31 46.06 C-16.64 47.66 -20.53 48.51 -25.12 48.73 C-27.33 48.91 -27.33 48.91 -30 51 C-30.99 51 -31.98 51 -33 51 C-32.93 51.68 -32.86 52.37 -32.78 53.07 C-33.07 56.97 -34.59 59.43 -36.5 62.81 C-36.83 63.41 -37.17 64.01 -37.51 64.62 C-38.33 66.09 -39.16 67.54 -40 69 C-39.5 69.5 -39.5 69.5 -39 70 C-39.02 71.3 -39.04 72.6 -39.06 73.94 C-39.17 83.24 -39.17 83.24 -35 91.12 C-30.69 92.38 -26.46 92.58 -22 92 C-21.01 91.34 -20.02 90.68 -19 90 C-16.99 89.4 -14.97 88.85 -12.94 88.31 C-6.25 86.32 -1.45 83.25 4 79 C9.61 75 9.61 75 12 75 C12.5 73.51 12.5 73.51 13 72 C13.66 72 14.32 72 15 72 C15 71.34 15 70.68 15 70 C16.09 68.88 17.18 67.77 18.31 66.69 C20.46 64.54 22.47 62.27 24.5 60 C27.58 56.56 30.68 53.21 34 50 C35.49 50.5 35.49 50.5 37 51 C36.26 58.74 36.26 58.74 33 62 C32.34 62 31.68 62 31 62 C30.73 62.58 30.46 63.15 30.18 63.75 C21.7 79.91 4.53 92.96 -12 100 C-12.58 100.25 -13.16 100.51 -13.75 100.77 C-18.89 102.89 -23.54 103.55 -29.06 103.75 C-29.83 103.79 -30.59 103.84 -31.38 103.88 C-38.08 104.19 -44.07 104.17 -49.75 100.19 C-50.49 99.69 -51.22 99.18 -51.98 98.67 C-56.71 94.76 -57.77 91.04 -58.72 85.15 C-59.41 77.41 -58.52 70.32 -56 63 C-55.7 61.38 -55.43 59.75 -55.19 58.12 C-54.34 53.68 -52.84 50.58 -50.29 46.88 C-49.05 45.07 -48.02 43.24 -47 41.31 C-44.99 37.98 -42.77 35.7 -40 33 C-39.6 32.14 -39.6 32.14 -39.18 31.26 C-37.47 27.99 -35.08 25.34 -32.69 22.56 C-32.21 22 -31.74 21.44 -31.25 20.87 C-22.92 11.1 -22.92 11.1 -19.19 10.69 C-18.47 10.79 -17.74 10.89 -17 11 C-16.96 9.93 -16.92 8.86 -16.88 7.75 C-16 4 -16 4 -13.56 1.56 C-8.95 -0.46 -4.97 -0.55 0 0 Z M-4 14 C-4 14.66 -4 15.32 -4 16 C-4.99 16.33 -5.98 16.66 -7 17 C-7 17.66 -7 18.32 -7 19 C-7.66 19 -8.32 19 -9 19 C-10.8 20.94 -10.8 20.94 -12.69 23.44 C-13.39 24.34 -14.1 25.25 -14.82 26.19 C-15.9 27.58 -15.9 27.58 -17 29 C-17.69 29.85 -18.37 30.69 -19.08 31.56 C-19.71 32.35 -20.35 33.13 -21 33.94 C-21.87 35 -21.87 35 -22.75 36.09 C-24.27 38.04 -24.27 38.04 -24 41 C-18.16 40.48 -13.4 39.22 -8 37 C-7.11 36.71 -6.23 36.42 -5.31 36.12 C-2.2 34.61 -0.32 32.56 2 30 C2.76 29.22 3.53 28.43 4.31 27.62 C6.55 24.15 6.51 22.06 6 18 C4.7 15.01 3.97 13.46 1 12.06 C-1.32 11.8 -1.32 11.8 -4 14 Z " fill="#000000" transform="translate(384,77)"/>
<path d="M0 0 C4.97 6.39 6.33 11.57 6.25 19.44 C6.26 20.54 6.26 20.54 6.27 21.67 C6.26 26.21 5.6 29.71 4 34 C3.24 36.78 2.56 39.58 1.88 42.38 C1.69 43.11 1.51 43.85 1.32 44.61 C0.88 46.4 0.44 48.2 0 50 C-0.66 50 -1.32 50 -2 50 C-1.98 50.81 -1.95 51.62 -1.93 52.45 C-1.91 53.52 -1.89 54.59 -1.88 55.69 C-1.85 56.74 -1.83 57.8 -1.8 58.89 C-2 62 -2 62 -2.99 64.39 C-4.36 67.94 -4.29 71.32 -4.25 75.06 C-4.26 75.77 -4.27 76.48 -4.27 77.21 C-4.26 80.96 -4.08 83.82 -2 87 C4.97 86.83 8.56 85.33 14 81 C14.66 81 15.32 81 16 81 C16.5 79.51 16.5 79.51 17 78 C17.66 78 18.32 78 19 78 C19.5 76.51 19.5 76.51 20 75 C21.98 75.33 23.96 75.66 26 76 C24.89 82.36 19.67 87.71 15 91.94 C10.52 95.01 6.93 96.14 1.5 95.75 C-9.58 93.38 -9.58 93.38 -13 89 C-13 88.34 -13 87.68 -13 87 C-13.66 87 -14.32 87 -15 87 C-17.29 80.98 -18.54 75.56 -18.75 69.12 C-18.79 68.24 -18.82 67.36 -18.86 66.45 C-19.39 48.65 -18.53 30.79 -18 13 C-22.37 14.24 -26.7 15.53 -31 17 C-31 17.66 -31 18.32 -31 19 C-32.51 20.21 -34.09 21.34 -35.69 22.44 C-40.29 25.7 -44.69 29.11 -49 32.75 C-49.55 33.21 -50.1 33.67 -50.67 34.14 C-53.52 36.56 -55.77 39.02 -58 42 C-58.66 42 -59.32 42 -60 42 C-60.33 42.99 -60.66 43.98 -61 45 C-61.66 45 -62.32 45 -63 45 C-63 45.66 -63 46.32 -63 47 C-64.49 47.5 -64.49 47.5 -66 48 C-66.66 47.01 -67.32 46.02 -68 45 C-66.68 42.69 -65.36 40.38 -64 38 C-63.34 38 -62.68 38 -62 38 C-61.73 37.4 -61.46 36.8 -61.19 36.19 C-59.99 33.99 -58.75 32.75 -57 31 C-56.59 30.24 -56.17 29.47 -55.75 28.69 C-53.42 25.12 -50.49 22.45 -47 20 C-46.34 20 -45.68 20 -45 20 C-44.67 19.01 -44.34 18.02 -44 17 C-41.63 15.24 -41.63 15.24 -38.56 13.31 C-34.41 10.65 -30.61 7.9 -26.88 4.69 C-19.7 -1.17 -8.66 -5.15 0 0 Z " fill="#000000" transform="translate(950,83)"/>
<path d="M0 0 C0 0.99 0 1.98 0 3 C-1.54 4.47 -1.54 4.47 -3.62 6.06 C-7.59 9.38 -9.99 12.78 -12.48 17.28 C-13.72 19.51 -15.03 21.64 -16.39 23.8 C-18.96 27.87 -21.26 32.05 -23.5 36.31 C-23.89 37.05 -24.27 37.79 -24.67 38.55 C-30.6 48.78 -30.6 48.78 -33 60 C-31.33 59.07 -31.33 59.07 -29.62 58.12 C-29 57.78 -28.37 57.43 -27.73 57.07 C-25.84 55.99 -25.84 55.99 -24 54 C-21.38 54.38 -21.38 54.38 -19 55 C-19 58 -19 58 -20 61 C-20.72 61.5 -21.44 61.99 -22.19 62.5 C-25.67 65.6 -27.2 68.88 -29.33 72.98 C-32.1 77.99 -35.52 82.48 -39 87 C-39.51 87.67 -40.02 88.34 -40.55 89.02 C-41.64 90.4 -42.81 91.71 -44 93 C-44.66 93 -45.32 93 -46 93 C-46.25 93.62 -46.5 94.24 -46.75 94.88 C-48.23 97.39 -49.44 97.76 -52 99 C-52.33 99.99 -52.66 100.98 -53 102 C-56.38 102.62 -56.38 102.62 -60 103 C-60.66 102.34 -61.32 101.68 -62 101 C-61.79 95.78 -60.18 91.82 -57.98 87.12 C-56.76 84.48 -55.89 81.77 -55 79 C-53.41 74.63 -51.75 70.3 -50 66 C-49.34 66 -48.68 66 -48 66 C-47.82 64.89 -47.82 64.89 -47.64 63.76 C-47.01 61.03 -46.17 59.21 -44.75 56.81 C-39.62 47.86 -35.43 38.75 -32 29 C-31.74 28.26 -31.48 27.52 -31.21 26.76 C-31.14 26.18 -31.07 25.6 -31 25 C-31.8 24.24 -32.61 23.47 -33.44 22.69 C-36 20 -36 20 -36.69 16.69 C-35.54 10.54 -31.48 6.21 -27 2 C-19.43 -2.85 -7.8 -5.2 0 0 Z " fill="#000000" transform="translate(901,78)"/>
</svg>
